<mxfile host="app.diagrams.net" agent="Mozilla/5.0 (Macintosh; Intel Mac OS X 10_15_7) AppleWebKit/537.36 (KHTML, like Gecko) Chrome/136.0.0.0 Safari/537.36 Edg/136.0.0.0" version="26.2.14">
  <diagram name="Page-1" id="xflWplagShpDPZGNYlRq">
    <mxGraphModel dx="968" dy="668" grid="1" gridSize="10" guides="1" tooltips="1" connect="1" arrows="1" fold="1" page="1" pageScale="1" pageWidth="850" pageHeight="1100" math="0" shadow="0">
      <root>
        <mxCell id="0" />
        <mxCell id="1" parent="0" />
        <mxCell id="r09AHVoHALnvfbyJTTTv-1" value="" style="rounded=0;whiteSpace=wrap;html=1;fillColor=none;dashed=1;" vertex="1" parent="1">
          <mxGeometry x="3.5" y="140" width="160" height="670" as="geometry" />
        </mxCell>
        <mxCell id="r09AHVoHALnvfbyJTTTv-3" value="&lt;font style=&quot;font-size: 20px;&quot;&gt;Source&lt;/font&gt;" style="text;html=1;align=center;verticalAlign=middle;whiteSpace=wrap;rounded=0;fillColor=default;" vertex="1" parent="1">
          <mxGeometry x="50" y="120" width="60" height="30" as="geometry" />
        </mxCell>
        <mxCell id="r09AHVoHALnvfbyJTTTv-4" value="" style="rounded=0;whiteSpace=wrap;html=1;fillColor=none;dashed=1;" vertex="1" parent="1">
          <mxGeometry x="180" y="140" width="520" height="670" as="geometry" />
        </mxCell>
        <mxCell id="r09AHVoHALnvfbyJTTTv-5" value="&lt;div&gt;&lt;span style=&quot;font-size: 20px;&quot;&gt;Data Warehouse&lt;/span&gt;&lt;/div&gt;" style="text;html=1;align=center;verticalAlign=middle;whiteSpace=wrap;rounded=0;fillColor=default;" vertex="1" parent="1">
          <mxGeometry x="352" y="120" width="170" height="30" as="geometry" />
        </mxCell>
        <mxCell id="r09AHVoHALnvfbyJTTTv-8" value="&lt;div&gt;&lt;br&gt;&lt;/div&gt;" style="rounded=0;whiteSpace=wrap;html=1;fillColor=none;dashed=1;" vertex="1" parent="1">
          <mxGeometry x="717.5" y="140" width="130" height="670" as="geometry" />
        </mxCell>
        <mxCell id="r09AHVoHALnvfbyJTTTv-9" value="&lt;font style=&quot;font-size: 20px;&quot;&gt;Destination&lt;/font&gt;" style="text;html=1;align=center;verticalAlign=middle;whiteSpace=wrap;rounded=0;fillColor=default;" vertex="1" parent="1">
          <mxGeometry x="750" y="120" width="60" height="30" as="geometry" />
        </mxCell>
        <mxCell id="r09AHVoHALnvfbyJTTTv-12" value="&lt;b&gt;&lt;font style=&quot;font-size: 18px;&quot;&gt;Bronze&lt;/font&gt;&lt;/b&gt;" style="rounded=0;whiteSpace=wrap;html=1;fillColor=#fa6800;fontColor=#000000;strokeColor=#C73500;" vertex="1" parent="1">
          <mxGeometry x="210" y="170" width="120" height="30" as="geometry" />
        </mxCell>
        <mxCell id="r09AHVoHALnvfbyJTTTv-13" value="&lt;b&gt;&lt;font style=&quot;font-size: 18px;&quot;&gt;Silver&lt;/font&gt;&lt;/b&gt;" style="rounded=0;whiteSpace=wrap;html=1;fillColor=#eeeeee;strokeColor=#36393d;" vertex="1" parent="1">
          <mxGeometry x="365" y="170" width="143" height="30" as="geometry" />
        </mxCell>
        <mxCell id="r09AHVoHALnvfbyJTTTv-14" value="&lt;b&gt;&lt;font style=&quot;font-size: 18px;&quot;&gt;Gold&lt;/font&gt;&lt;/b&gt;" style="rounded=0;whiteSpace=wrap;html=1;fillColor=#e3c800;strokeColor=#B09500;fontColor=#000000;" vertex="1" parent="1">
          <mxGeometry x="544" y="170" width="138" height="30" as="geometry" />
        </mxCell>
        <mxCell id="r09AHVoHALnvfbyJTTTv-15" value="" style="rounded=0;whiteSpace=wrap;html=1;fillColor=none;dashed=1;fontColor=#000000;strokeColor=#C73500;" vertex="1" parent="1">
          <mxGeometry x="210" y="210" width="120" height="580" as="geometry" />
        </mxCell>
        <mxCell id="r09AHVoHALnvfbyJTTTv-16" value="" style="rounded=0;whiteSpace=wrap;html=1;fillColor=none;dashed=1;" vertex="1" parent="1">
          <mxGeometry x="365" y="210" width="145" height="580" as="geometry" />
        </mxCell>
        <mxCell id="r09AHVoHALnvfbyJTTTv-17" value="" style="rounded=0;whiteSpace=wrap;html=1;fillColor=none;dashed=1;fontColor=#000000;strokeColor=#B09500;" vertex="1" parent="1">
          <mxGeometry x="544" y="210" width="140" height="580" as="geometry" />
        </mxCell>
        <mxCell id="r09AHVoHALnvfbyJTTTv-19" value="" style="shape=cylinder3;whiteSpace=wrap;html=1;boundedLbl=1;backgroundOutline=1;size=15;fillColor=#fa6800;fontColor=#000000;strokeColor=#C73500;" vertex="1" parent="1">
          <mxGeometry x="240" y="230" width="60" height="80" as="geometry" />
        </mxCell>
        <mxCell id="r09AHVoHALnvfbyJTTTv-20" value="" style="shape=cylinder3;whiteSpace=wrap;html=1;boundedLbl=1;backgroundOutline=1;size=15;fillColor=#e3c800;strokeColor=#B09500;fontColor=#000000;" vertex="1" parent="1">
          <mxGeometry x="573" y="230" width="70" height="80" as="geometry" />
        </mxCell>
        <mxCell id="r09AHVoHALnvfbyJTTTv-21" value="" style="shape=cylinder3;whiteSpace=wrap;html=1;boundedLbl=1;backgroundOutline=1;size=15;fillColor=#f5f5f5;strokeColor=#666666;gradientColor=#b3b3b3;" vertex="1" parent="1">
          <mxGeometry x="406.5" y="230" width="60" height="80" as="geometry" />
        </mxCell>
        <mxCell id="r09AHVoHALnvfbyJTTTv-22" value="" style="image;aspect=fixed;html=1;points=[];align=center;fontSize=12;image=img/lib/azure2/general/Folder_Blank.svg;" vertex="1" parent="1">
          <mxGeometry x="59" y="210" width="69" height="56.00000000000001" as="geometry" />
        </mxCell>
        <mxCell id="r09AHVoHALnvfbyJTTTv-23" value="" style="image;aspect=fixed;html=1;points=[];align=center;fontSize=12;image=img/lib/azure2/general/Folder_Blank.svg;" vertex="1" parent="1">
          <mxGeometry x="59" y="317" width="69" height="56.00000000000001" as="geometry" />
        </mxCell>
        <mxCell id="r09AHVoHALnvfbyJTTTv-24" value="" style="image;aspect=fixed;html=1;points=[];align=center;fontSize=12;image=img/lib/azure2/general/File.svg;" vertex="1" parent="1">
          <mxGeometry x="98" y="240" width="35.71" height="44" as="geometry" />
        </mxCell>
        <mxCell id="r09AHVoHALnvfbyJTTTv-25" value="" style="image;aspect=fixed;html=1;points=[];align=center;fontSize=12;image=img/lib/azure2/general/File.svg;" vertex="1" parent="1">
          <mxGeometry x="98" y="360" width="35.71" height="44" as="geometry" />
        </mxCell>
        <mxCell id="r09AHVoHALnvfbyJTTTv-26" value="CRM" style="text;html=1;align=center;verticalAlign=middle;whiteSpace=wrap;rounded=0;" vertex="1" parent="1">
          <mxGeometry x="63.5" y="280" width="60" height="30" as="geometry" />
        </mxCell>
        <mxCell id="r09AHVoHALnvfbyJTTTv-27" value="ERP" style="text;html=1;align=center;verticalAlign=middle;whiteSpace=wrap;rounded=0;" vertex="1" parent="1">
          <mxGeometry x="68" y="400" width="60" height="30" as="geometry" />
        </mxCell>
        <mxCell id="r09AHVoHALnvfbyJTTTv-31" value="" style="line;strokeWidth=2;html=1;" vertex="1" parent="1">
          <mxGeometry x="10" y="450" width="150" height="10" as="geometry" />
        </mxCell>
        <mxCell id="r09AHVoHALnvfbyJTTTv-32" value="&lt;font style=&quot;font-size: 14px;&quot;&gt;Object Type: CSV files&lt;/font&gt;&lt;div&gt;&lt;br&gt;&lt;/div&gt;" style="text;html=1;align=center;verticalAlign=middle;whiteSpace=wrap;rounded=0;" vertex="1" parent="1">
          <mxGeometry y="490" width="160" height="30" as="geometry" />
        </mxCell>
        <mxCell id="r09AHVoHALnvfbyJTTTv-33" value="&lt;div&gt;&lt;span style=&quot;font-size: 14px;&quot;&gt;Interface: Files in Folders&lt;/span&gt;&lt;/div&gt;" style="text;html=1;align=center;verticalAlign=middle;whiteSpace=wrap;rounded=0;" vertex="1" parent="1">
          <mxGeometry y="520" width="160" height="30" as="geometry" />
        </mxCell>
        <mxCell id="r09AHVoHALnvfbyJTTTv-34" value="&lt;div&gt;&lt;span style=&quot;font-size: 14px;&quot;&gt;Raw Data&lt;/span&gt;&lt;/div&gt;" style="text;html=1;align=center;verticalAlign=middle;whiteSpace=wrap;rounded=0;" vertex="1" parent="1">
          <mxGeometry x="190" y="320" width="160" height="30" as="geometry" />
        </mxCell>
        <mxCell id="r09AHVoHALnvfbyJTTTv-35" value="&lt;div&gt;&lt;span style=&quot;font-size: 14px;&quot;&gt;Cleaned, Standardiz&lt;/span&gt;&lt;span style=&quot;font-size: 14px; background-color: transparent; color: light-dark(rgb(0, 0, 0), rgb(255, 255, 255));&quot;&gt;ed Data&lt;/span&gt;&lt;/div&gt;" style="text;html=1;align=center;verticalAlign=middle;whiteSpace=wrap;rounded=0;" vertex="1" parent="1">
          <mxGeometry x="362.5" y="317" width="125" height="30" as="geometry" />
        </mxCell>
        <mxCell id="r09AHVoHALnvfbyJTTTv-36" value="&lt;div&gt;&lt;span style=&quot;font-size: 14px;&quot;&gt;Business Ready Data&lt;/span&gt;&lt;/div&gt;&lt;div&gt;&lt;span style=&quot;font-size: 14px;&quot;&gt;&lt;br&gt;&lt;/span&gt;&lt;/div&gt;" style="text;html=1;align=center;verticalAlign=middle;whiteSpace=wrap;rounded=0;" vertex="1" parent="1">
          <mxGeometry x="533" y="320" width="160" height="30" as="geometry" />
        </mxCell>
        <mxCell id="r09AHVoHALnvfbyJTTTv-39" value="&lt;font style=&quot;font-size: 14px;&quot;&gt;Object Type: Tables&lt;/font&gt;" style="text;html=1;align=left;verticalAlign=middle;whiteSpace=wrap;rounded=0;" vertex="1" parent="1">
          <mxGeometry x="210" y="367" width="160" height="9" as="geometry" />
        </mxCell>
        <mxCell id="r09AHVoHALnvfbyJTTTv-40" value="&lt;span style=&quot;font-size: 14px;&quot;&gt;&lt;b&gt;Load:&amp;nbsp;&lt;/b&gt;&lt;/span&gt;&lt;div&gt;&lt;ul&gt;&lt;li&gt;&lt;span style=&quot;font-size: 14px; background-color: transparent; color: light-dark(rgb(0, 0, 0), rgb(255, 255, 255));&quot;&gt;Batch Processing&amp;nbsp;&lt;/span&gt;&lt;/li&gt;&lt;li&gt;&lt;span style=&quot;font-size: 14px;&quot;&gt;Full Load&lt;/span&gt;&lt;/li&gt;&lt;li&gt;&lt;span style=&quot;font-size: 14px;&quot;&gt;Truncate and Insert&lt;br&gt;&lt;/span&gt;&lt;/li&gt;&lt;/ul&gt;&lt;div&gt;&lt;span style=&quot;font-size: 14px;&quot;&gt;No Transformations&lt;/span&gt;&lt;/div&gt;&lt;/div&gt;" style="text;html=1;align=left;verticalAlign=middle;whiteSpace=wrap;rounded=0;" vertex="1" parent="1">
          <mxGeometry x="210" y="412" width="120" height="128" as="geometry" />
        </mxCell>
        <mxCell id="r09AHVoHALnvfbyJTTTv-41" value="&lt;font style=&quot;font-size: 14px;&quot;&gt;Object Type: Tables&lt;/font&gt;" style="text;html=1;align=left;verticalAlign=middle;whiteSpace=wrap;rounded=0;" vertex="1" parent="1">
          <mxGeometry x="365" y="359" width="160" height="30" as="geometry" />
        </mxCell>
        <mxCell id="r09AHVoHALnvfbyJTTTv-42" value="&lt;span style=&quot;font-size: 14px;&quot;&gt;&lt;b&gt;Load&lt;/b&gt;&lt;/span&gt;&lt;span style=&quot;color: rgba(0, 0, 0, 0); font-family: monospace; font-size: 0px; text-wrap-mode: nowrap;&quot;&gt;%3CmxGraphModel%3E%3Croot%3E%3CmxCell%20id%3D%220%22%2F%3E%3CmxCell%20id%3D%221%22%20parent%3D%220%22%2F%3E%3CmxCell%20id%3D%222%22%20value%3D%22%22%20style%3D%22line%3BstrokeWidth%3D2%3Bhtml%3D1%3B%22%20vertex%3D%221%22%20parent%3D%221%22%3E%3CmxGeometry%20x%3D%22530%22%20y%3D%22349%22%20width%3D%22100%22%20height%3D%2210%22%20as%3D%22geometry%22%2F%3E%3C%2FmxCell%3E%3C%2Froot%3E%3C%2FmxGraphModel%3E&lt;/span&gt;&lt;span style=&quot;font-size: 14px;&quot;&gt;&amp;nbsp;&lt;/span&gt;&lt;div&gt;&lt;ul&gt;&lt;li&gt;&lt;span style=&quot;font-size: 14px; background-color: transparent; color: light-dark(rgb(0, 0, 0), rgb(255, 255, 255));&quot;&gt;Batch Processing&amp;nbsp;&lt;/span&gt;&lt;/li&gt;&lt;li&gt;&lt;span style=&quot;font-size: 14px;&quot;&gt;Full Load&lt;/span&gt;&lt;/li&gt;&lt;li&gt;&lt;span style=&quot;font-size: 14px;&quot;&gt;Truncate and Insert&lt;/span&gt;&lt;/li&gt;&lt;/ul&gt;&lt;/div&gt;" style="text;html=1;align=left;verticalAlign=middle;whiteSpace=wrap;rounded=0;" vertex="1" parent="1">
          <mxGeometry x="365" y="404" width="120" height="116" as="geometry" />
        </mxCell>
        <mxCell id="r09AHVoHALnvfbyJTTTv-43" value="&lt;font style=&quot;font-size: 14px;&quot;&gt;&lt;b&gt;Data Model&lt;/b&gt;: None (as-is)&lt;/font&gt;" style="text;html=1;align=left;verticalAlign=middle;whiteSpace=wrap;rounded=0;" vertex="1" parent="1">
          <mxGeometry x="210" y="589" width="120" height="30" as="geometry" />
        </mxCell>
        <mxCell id="r09AHVoHALnvfbyJTTTv-44" value="&lt;span style=&quot;font-size: 14px;&quot;&gt;&lt;b&gt;Load&lt;/b&gt;:&amp;nbsp;&lt;/span&gt;&lt;div&gt;&lt;ul&gt;&lt;li&gt;&lt;span style=&quot;font-size: 14px; background-color: transparent; color: light-dark(rgb(0, 0, 0), rgb(255, 255, 255));&quot;&gt;Batch Processing&amp;nbsp;&lt;/span&gt;&lt;/li&gt;&lt;li&gt;&lt;span style=&quot;font-size: 14px;&quot;&gt;Full Load&lt;/span&gt;&lt;/li&gt;&lt;li&gt;&lt;span style=&quot;font-size: 14px;&quot;&gt;Truncate and Insert&lt;/span&gt;&lt;/li&gt;&lt;/ul&gt;&lt;/div&gt;" style="text;html=1;align=left;verticalAlign=middle;whiteSpace=wrap;rounded=0;" vertex="1" parent="1">
          <mxGeometry x="548" y="404" width="120" height="116" as="geometry" />
        </mxCell>
        <mxCell id="r09AHVoHALnvfbyJTTTv-45" value="" style="line;strokeWidth=2;html=1;" vertex="1" parent="1">
          <mxGeometry x="553" y="349" width="122" height="10" as="geometry" />
        </mxCell>
        <mxCell id="r09AHVoHALnvfbyJTTTv-47" value="" style="line;strokeWidth=2;html=1;" vertex="1" parent="1">
          <mxGeometry x="375" y="350" width="124" height="10" as="geometry" />
        </mxCell>
        <mxCell id="r09AHVoHALnvfbyJTTTv-48" value="" style="line;strokeWidth=2;html=1;" vertex="1" parent="1">
          <mxGeometry x="220" y="350" width="100" height="10" as="geometry" />
        </mxCell>
        <mxCell id="r09AHVoHALnvfbyJTTTv-51" value="&lt;font style=&quot;font-size: 14px;&quot;&gt;&lt;b&gt;Transformations:&lt;/b&gt;&lt;/font&gt;&lt;div&gt;&lt;ul&gt;&lt;li&gt;&lt;font style=&quot;font-size: 14px;&quot;&gt;Data Cleansing&amp;nbsp;&lt;/font&gt;&lt;/li&gt;&lt;li&gt;&lt;font style=&quot;font-size: 14px;&quot;&gt;Data Standardisation&lt;/font&gt;&lt;/li&gt;&lt;li&gt;&lt;font style=&quot;font-size: 14px;&quot;&gt;Data Normalisation&lt;/font&gt;&lt;/li&gt;&lt;li&gt;&lt;font style=&quot;font-size: 14px;&quot;&gt;Data Enrichment&lt;/font&gt;&lt;/li&gt;&lt;/ul&gt;&lt;/div&gt;" style="text;html=1;align=left;verticalAlign=middle;whiteSpace=wrap;rounded=0;" vertex="1" parent="1">
          <mxGeometry x="370" y="550" width="110" height="118" as="geometry" />
        </mxCell>
        <mxCell id="r09AHVoHALnvfbyJTTTv-54" value="" style="shape=flexArrow;endArrow=classic;html=1;rounded=0;entryX=0.033;entryY=0.327;entryDx=0;entryDy=0;entryPerimeter=0;fillColor=#dae8fc;gradientColor=#7ea6e0;strokeColor=#6c8ebf;" edge="1" parent="1" target="r09AHVoHALnvfbyJTTTv-15">
          <mxGeometry width="50" height="50" relative="1" as="geometry">
            <mxPoint x="140" y="400" as="sourcePoint" />
            <mxPoint x="190" y="350" as="targetPoint" />
          </mxGeometry>
        </mxCell>
        <mxCell id="r09AHVoHALnvfbyJTTTv-55" value="" style="shape=flexArrow;endArrow=classic;html=1;rounded=0;entryX=0;entryY=0;entryDx=0;entryDy=0;fillColor=#dae8fc;gradientColor=#7ea6e0;strokeColor=#6c8ebf;" edge="1" parent="1" target="r09AHVoHALnvfbyJTTTv-42">
          <mxGeometry width="50" height="50" relative="1" as="geometry">
            <mxPoint x="320" y="404" as="sourcePoint" />
            <mxPoint x="360" y="400" as="targetPoint" />
          </mxGeometry>
        </mxCell>
        <mxCell id="r09AHVoHALnvfbyJTTTv-56" value="" style="shape=flexArrow;endArrow=classic;html=1;rounded=0;entryX=0;entryY=0;entryDx=0;entryDy=0;fillColor=#dae8fc;gradientColor=#7ea6e0;strokeColor=#6c8ebf;" edge="1" parent="1" target="r09AHVoHALnvfbyJTTTv-44">
          <mxGeometry width="50" height="50" relative="1" as="geometry">
            <mxPoint x="499" y="404" as="sourcePoint" />
            <mxPoint x="573" y="404" as="targetPoint" />
          </mxGeometry>
        </mxCell>
        <mxCell id="r09AHVoHALnvfbyJTTTv-57" value="" style="shape=flexArrow;endArrow=classic;html=1;rounded=0;entryX=0;entryY=0;entryDx=0;entryDy=0;fillColor=#dae8fc;gradientColor=#7ea6e0;strokeColor=#6c8ebf;" edge="1" parent="1">
          <mxGeometry width="50" height="50" relative="1" as="geometry">
            <mxPoint x="682" y="403" as="sourcePoint" />
            <mxPoint x="731" y="403" as="targetPoint" />
          </mxGeometry>
        </mxCell>
        <mxCell id="r09AHVoHALnvfbyJTTTv-58" value="&lt;b style=&quot;font-size: 14px;&quot;&gt;Data Model&lt;/b&gt;&lt;span style=&quot;font-size: 14px;&quot;&gt;: None (as-is)&lt;/span&gt;" style="text;html=1;align=left;verticalAlign=middle;whiteSpace=wrap;rounded=0;" vertex="1" parent="1">
          <mxGeometry x="370" y="700" width="120" height="30" as="geometry" />
        </mxCell>
        <mxCell id="r09AHVoHALnvfbyJTTTv-59" value="&lt;font style=&quot;font-size: 14px;&quot;&gt;&lt;b&gt;Transformations:&lt;/b&gt;&lt;/font&gt;&lt;div&gt;&lt;ul&gt;&lt;li&gt;&lt;font style=&quot;font-size: 14px;&quot;&gt;Data Integration&lt;/font&gt;&lt;/li&gt;&lt;li&gt;&lt;font style=&quot;font-size: 14px;&quot;&gt;Data Aggregation&lt;/font&gt;&lt;/li&gt;&lt;li&gt;&lt;span style=&quot;font-size: 14px;&quot;&gt;Business Logics&lt;/span&gt;&lt;/li&gt;&lt;/ul&gt;&lt;/div&gt;" style="text;html=1;align=left;verticalAlign=middle;whiteSpace=wrap;rounded=0;" vertex="1" parent="1">
          <mxGeometry x="553" y="550" width="110" height="118" as="geometry" />
        </mxCell>
        <mxCell id="r09AHVoHALnvfbyJTTTv-60" value="&lt;b style=&quot;font-size: 14px;&quot;&gt;Data Model&lt;/b&gt;&lt;span style=&quot;font-size: 14px;&quot;&gt;:&amp;nbsp;&lt;/span&gt;&lt;div&gt;&lt;ul&gt;&lt;li&gt;&lt;span style=&quot;font-size: 14px;&quot;&gt;Star Schema&lt;/span&gt;&lt;/li&gt;&lt;li&gt;&lt;span style=&quot;font-size: 14px;&quot;&gt;Flat Table&lt;/span&gt;&lt;/li&gt;&lt;li&gt;&lt;span style=&quot;font-size: 14px;&quot;&gt;Aggregated Table&lt;/span&gt;&lt;/li&gt;&lt;/ul&gt;&lt;/div&gt;" style="text;html=1;align=left;verticalAlign=middle;whiteSpace=wrap;rounded=0;" vertex="1" parent="1">
          <mxGeometry x="554" y="730" width="120" height="20" as="geometry" />
        </mxCell>
        <mxCell id="r09AHVoHALnvfbyJTTTv-61" value="" style="image;aspect=fixed;html=1;points=[];align=center;fontSize=12;image=img/lib/azure2/analytics/Power_BI_Embedded.svg;" vertex="1" parent="1">
          <mxGeometry x="730" y="330" width="51" height="68" as="geometry" />
        </mxCell>
        <mxCell id="r09AHVoHALnvfbyJTTTv-63" value="List Item" style="text;strokeColor=none;fillColor=none;align=left;verticalAlign=middle;spacingLeft=4;spacingRight=4;overflow=hidden;points=[[0,0.5],[1,0.5]];portConstraint=eastwest;rotatable=0;whiteSpace=wrap;html=1;" vertex="1" parent="1">
          <mxGeometry x="440" y="470" width="80" height="30" as="geometry" />
        </mxCell>
        <mxCell id="r09AHVoHALnvfbyJTTTv-64" value="&lt;font style=&quot;font-size: 18px;&quot;&gt;BI &amp;amp; Reporting&lt;/font&gt;" style="text;html=1;align=center;verticalAlign=middle;whiteSpace=wrap;rounded=0;" vertex="1" parent="1">
          <mxGeometry x="722.5" y="412" width="125" height="30" as="geometry" />
        </mxCell>
        <mxCell id="r09AHVoHALnvfbyJTTTv-67" value="" style="sketch=0;html=1;aspect=fixed;strokeColor=none;shadow=0;fillColor=#3B8DF1;verticalAlign=top;labelPosition=center;verticalLabelPosition=bottom;shape=mxgraph.gcp2.big_query" vertex="1" parent="1">
          <mxGeometry x="739.5" y="455" width="74.25" height="75" as="geometry" />
        </mxCell>
        <mxCell id="r09AHVoHALnvfbyJTTTv-68" value="&lt;font style=&quot;font-size: 18px;&quot;&gt;Ad-Hoc SQL Queries&lt;/font&gt;" style="text;html=1;align=center;verticalAlign=middle;whiteSpace=wrap;rounded=0;" vertex="1" parent="1">
          <mxGeometry x="715" y="540" width="125" height="30" as="geometry" />
        </mxCell>
        <mxCell id="r09AHVoHALnvfbyJTTTv-71" value="" style="verticalLabelPosition=bottom;aspect=fixed;html=1;shape=mxgraph.salesforce.analytics;" vertex="1" parent="1">
          <mxGeometry x="781" y="334.6" width="60" height="58.8" as="geometry" />
        </mxCell>
        <mxCell id="r09AHVoHALnvfbyJTTTv-73" value="&lt;font style=&quot;font-size: 14px;&quot;&gt;Object Type: Views&lt;/font&gt;" style="text;html=1;align=left;verticalAlign=middle;whiteSpace=wrap;rounded=0;" vertex="1" parent="1">
          <mxGeometry x="548" y="356.5" width="160" height="30" as="geometry" />
        </mxCell>
        <mxCell id="r09AHVoHALnvfbyJTTTv-76" value="" style="image;aspect=fixed;html=1;points=[];align=center;fontSize=12;image=img/lib/azure2/ai_machine_learning/Cognitive_Services.svg;" vertex="1" parent="1">
          <mxGeometry x="751" y="600" width="68" height="48" as="geometry" />
        </mxCell>
        <mxCell id="r09AHVoHALnvfbyJTTTv-78" value="&lt;font style=&quot;font-size: 18px;&quot;&gt;Machine Leaning&lt;/font&gt;" style="text;html=1;align=center;verticalAlign=middle;whiteSpace=wrap;rounded=0;" vertex="1" parent="1">
          <mxGeometry x="725" y="668" width="125" height="30" as="geometry" />
        </mxCell>
        <mxCell id="r09AHVoHALnvfbyJTTTv-81" value="" style="shadow=0;dashed=0;html=1;strokeColor=none;fillColor=#EF8F21;labelPosition=center;verticalLabelPosition=bottom;verticalAlign=top;align=center;outlineConnect=0;shape=mxgraph.veeam.ms_sql;" vertex="1" parent="1">
          <mxGeometry x="180" y="119.99999999999999" width="44.8" height="44.8" as="geometry" />
        </mxCell>
      </root>
    </mxGraphModel>
  </diagram>
</mxfile>
